<?xml version="1.0" encoding="UTF-8"?>
<svg version="1.1" xmlns="http://www.w3.org/2000/svg" width="512" height="512">
<path d="M0 0 C137.94 0 275.88 0 418 0 C418 137.94 418 275.88 418 418 C280.06 418 142.12 418 0 418 C0 280.06 0 142.12 0 0 Z M21 21 C21 145.08 21 269.16 21 397 C145.08 397 269.16 397 397 397 C397 272.92 397 148.84 397 21 C272.92 21 148.84 21 21 21 Z " fill="#0187D0" transform="translate(47,47)"/>
<path d="M0 0 C11.28387599 10.44339711 11.28387599 10.44339711 13.46484375 18.28125 C6.53250035 23.3531894 -0.44057691 28.37359175 -7.66015625 33.03125 C-8.69398438 33.70671875 -9.7278125 34.3821875 -10.79296875 35.078125 C-13.53515625 36.28125 -13.53515625 36.28125 -15.69140625 35.73046875 C-17.75821629 34.10592103 -19.2765261 32.40304434 -20.91015625 30.34375 C-25.17534061 25.3661987 -28.92853214 23.3661241 -35.41015625 22.40625 C-40.34376413 22.05703378 -44.30799038 22.62222631 -48.53515625 25.28125 C-51.74478199 28.65135702 -52.78327831 31.29110437 -52.97265625 35.84375 C-52.71232929 40.56119 -51.68017632 43.33785157 -48.10400391 46.57788086 C-41.68123989 51.6958282 -34.35457796 54.83472257 -26.91015625 58.15625 C10.59254605 74.95934756 10.59254605 74.95934756 19.46484375 93.28125 C19.779375 93.92449219 20.09390625 94.56773437 20.41796875 95.23046875 C26.06692247 108.4390517 25.68236331 124.15091837 20.75390625 137.46484375 C14.66893412 150.75958589 3.99126844 159.23225907 -9.53515625 164.28125 C-18.54732839 167.24863125 -27.09733193 167.7420484 -36.53515625 167.65625 C-37.81132812 167.66785156 -39.0875 167.67945313 -40.40234375 167.69140625 C-51.78586183 167.65648748 -61.84131289 165.60540953 -72.09765625 160.65625 C-72.81945068 160.30925049 -73.54124512 159.96225098 -74.28491211 159.60473633 C-85.36052374 154.07125644 -92.78985453 146.59361604 -99.53515625 136.28125 C-100.19515625 135.29125 -100.85515625 134.30125 -101.53515625 133.28125 C-101.48339844 130.8112793 -101.48339844 130.8112793 -100.53515625 128.28125 C-98.29785156 126.46020508 -98.29785156 126.46020508 -95.36328125 124.80078125 C-93.77773438 123.89102539 -93.77773438 123.89102539 -92.16015625 122.96289062 C-90.48953125 122.03766602 -90.48953125 122.03766602 -88.78515625 121.09375 C-87.686875 120.46533203 -86.58859375 119.83691406 -85.45703125 119.18945312 C-80.89245167 116.59971896 -76.45433791 114.13406706 -71.53515625 112.28125 C-70.75011719 113.16167969 -69.96507812 114.04210937 -69.15625 114.94921875 C-68.09540743 116.12271717 -67.03418931 117.29587616 -65.97265625 118.46875 C-65.45896484 119.04689453 -64.94527344 119.62503906 -64.41601562 120.22070312 C-58.15931566 127.09918694 -51.94632493 132.01419039 -42.36328125 132.65234375 C-33.56137802 132.88636071 -25.79295948 132.97364469 -18.53515625 127.28125 C-15.54104221 124.19907378 -15.31536084 121.49879759 -15.09765625 117.34375 C-15.29092507 112.51202945 -16.10777457 109.87184033 -19.53515625 106.28125 C-28.09990985 100.27495765 -37.92037225 96.28088192 -47.43188477 92.03930664 C-66.11191953 83.68111804 -81.20030808 73.83837587 -89.53515625 54.28125 C-91.2621076 49.10039594 -90.80458995 43.64223238 -90.84765625 38.21875 C-90.87666016 37.02830078 -90.90566406 35.83785156 -90.93554688 34.61132812 C-91.0192376 22.90106453 -87.60029252 14.50565774 -80.53515625 5.28125 C-80.08011719 4.67539062 -79.62507813 4.06953125 -79.15625 3.4453125 C-72.55409583 -4.1738837 -60.29049299 -10.13606708 -50.34765625 -11.546875 C-32.17416337 -12.65747734 -14.52086441 -12.29570826 0 0 Z " fill="#0188D1" transform="translate(397.53515625,254.71875)"/>
<path d="M0 0 C44.88 0 89.76 0 136 0 C136.84404875 10.97263381 137 21.99495065 137 33 C120.5 33.33 104 33.66 87 34 C87 80.53 87 127.06 87 175 C74.46 175 61.92 175 49 175 C49 128.14 49 81.28 49 33 C32.83 33 16.66 33 0 33 C0 22.11 0 11.22 0 0 Z " fill="#0187D0" transform="translate(151,245)"/>
</svg>
